<svg width="206" height="176" viewBox="0 0 206 176" fill="none" xmlns="http://www.w3.org/2000/svg">
<path d="M5.79462 83.2295L42.0347 72.8601C57.964 68.3023 74.5721 77.5206 79.1299 93.4499L96.0718 152.66L30.9892 171.282L5.79462 83.2295Z" fill="white"/>
<path fill-rule="evenodd" clip-rule="evenodd" d="M10.0297 84.0731C8.47636 84.5175 7.57342 86.1232 8.01297 87.6594L30.2978 165.543C30.7374 167.079 32.353 167.964 33.9064 167.52L90.1595 151.424C91.7129 150.98 92.6158 149.374 92.1762 147.838L74.932 87.5706L62.9782 90.991C58.3181 92.3244 53.4713 89.6693 52.1526 85.0607L48.7038 73.0073L10.0297 84.0731ZM55.4703 75.386L69.417 83.1301L61.3865 85.4279C59.8331 85.8723 58.2175 84.9873 57.7779 83.4511L55.4703 75.386ZM2.38766 89.269C1.06899 84.6604 3.77781 79.8434 8.43797 78.51L51.0991 66.3033L79.4344 82.0367L97.8016 146.228C99.1202 150.837 96.4114 155.654 91.7512 156.987L35.4981 173.083C30.838 174.416 25.9912 171.761 24.6725 167.153L2.38766 89.269ZM27.2225 112.256C26.7829 110.72 27.6858 109.114 29.2392 108.669L62.9911 99.012C64.5445 98.5676 66.1601 99.4526 66.5996 100.989C67.0392 102.525 66.1363 104.131 64.5829 104.575L30.831 114.233C29.2776 114.677 27.662 113.792 27.2225 112.256ZM31.9978 128.945C31.5582 127.409 32.4612 125.803 34.0146 125.359L67.7664 115.701C69.3198 115.257 70.9354 116.142 71.375 117.678C71.8145 119.214 70.9116 120.82 69.3582 121.264L35.6063 130.922C34.0529 131.366 32.4373 130.481 31.9978 128.945ZM36.7731 145.634C36.3336 144.098 37.2365 142.493 38.7899 142.048L55.6658 137.219C57.2192 136.775 58.8348 137.66 59.2744 139.196C59.7139 140.732 58.811 142.338 57.2576 142.783L40.3817 147.611C38.8283 148.056 37.2127 147.171 36.7731 145.634Z" fill="#0891B2"/>
<path d="M38.922 43.2949L98.7955 39.705C115.334 38.7133 129.546 51.3168 130.537 67.8556L136.028 159.43L46.2083 164.816L38.922 43.2949Z" fill="white"/>
<path fill-rule="evenodd" clip-rule="evenodd" d="M44.174 45.6112C42.0301 45.7397 40.3953 47.5626 40.5224 49.6827L46.9672 157.169C47.0943 159.289 48.9353 160.903 51.0791 160.775L128.713 156.12C130.857 155.991 132.492 154.169 132.365 152.048L127.378 68.8747L110.881 69.8639C104.449 70.2495 98.9263 65.406 98.5449 59.0457L97.5475 42.411L44.174 45.6112ZM105.641 47.4497L121.503 61.5217L110.42 62.1863C108.276 62.3148 106.435 60.7003 106.308 58.5802L105.641 47.4497ZM32.759 50.1482C32.3776 43.7879 37.2822 38.3192 43.7136 37.9336L102.59 34.4034L134.816 62.9932L140.128 151.583C140.51 157.943 135.605 163.412 129.174 163.798L51.5394 168.452C45.108 168.838 39.5851 163.995 39.2038 157.634L32.759 50.1482ZM58.351 87.1396C58.2238 85.0195 59.8587 83.1967 62.0025 83.0681L108.583 80.2752C110.727 80.1466 112.568 81.7611 112.695 83.8812C112.822 86.0013 111.187 87.8242 109.043 87.9528L62.4629 90.7457C60.319 90.8742 58.4781 89.2598 58.351 87.1396ZM59.732 110.172C59.6049 108.052 61.2397 106.229 63.3835 106.101L109.964 103.308C112.108 103.179 113.949 104.794 114.076 106.914C114.203 109.034 112.568 110.857 110.424 110.986L63.8439 113.778C61.7001 113.907 59.8591 112.292 59.732 110.172ZM61.113 133.205C60.9859 131.085 62.6207 129.262 64.7646 129.134L88.0548 127.737C90.1986 127.609 92.0396 129.223 92.1667 131.343C92.2938 133.463 90.659 135.286 88.5152 135.415L65.2249 136.811C63.0811 136.94 61.2401 135.325 61.113 133.205Z" fill="#0891B2"/>
<path d="M82 7H149C174.957 7 196 28.0426 196 54V166H82V7Z" fill="white"/>
<path fill-rule="evenodd" clip-rule="evenodd" d="M88.2779 10.0725C85.4654 10.0725 83.1853 12.3274 83.1853 15.1088V156.124C83.1853 158.906 85.4654 161.161 88.2779 161.161H190.13C192.942 161.161 195.222 158.906 195.222 156.124V47.0052H173.579C165.141 47.0052 158.301 40.2407 158.301 31.8964V10.0725H88.2779ZM168.486 17.2938L188.119 36.9327H173.579C170.766 36.9327 168.486 34.6778 168.486 31.8964V17.2938ZM73.0002 15.1088C73.0002 6.76445 79.8403 0 88.2779 0H165.52L205.407 39.8997V156.124C205.407 164.469 198.567 171.233 190.13 171.233H88.2779C79.8403 171.233 73.0002 164.469 73.0002 156.124V15.1088ZM103.556 65.4715C103.556 62.6901 105.836 60.4353 108.648 60.4353H169.759C172.572 60.4353 174.852 62.6901 174.852 65.4715C174.852 68.253 172.572 70.5078 169.759 70.5078H108.648C105.836 70.5078 103.556 68.253 103.556 65.4715ZM103.556 95.6892C103.556 92.9077 105.836 90.6529 108.648 90.6529H169.759C172.572 90.6529 174.852 92.9077 174.852 95.6892C174.852 98.4706 172.572 100.725 169.759 100.725H108.648C105.836 100.725 103.556 98.4706 103.556 95.6892ZM103.556 125.907C103.556 123.125 105.836 120.871 108.648 120.871H139.204C142.016 120.871 144.296 123.125 144.296 125.907C144.296 128.688 142.016 130.943 139.204 130.943H108.648C105.836 130.943 103.556 128.688 103.556 125.907Z" fill="#0891B2"/>
</svg>
